<svg id="Layer_4" data-name="Layer 4" xmlns="http://www.w3.org/2000/svg" viewBox="0 0 1838 395"><defs><style>.cls-1{fill:#428dfb;}.cls-2,.cls-4{fill:#418dfb;}.cls-3{fill:#ffaf3a;}.cls-4{opacity:0.3;}</style></defs><path class="cls-1" d="M447.73,100.24h84c38.44,0,58.16,17.75,58.16,47.56,0,33.77-23.41,42.39-29.08,44.36v.49C571.44,194.13,587,202,587,229.87c0,20.45,3,39.18,9.61,46.32h-33c-4.68-7.64-4.68-17.25-4.68-25.87,0-32.28-6.66-46.58-35-46.58H478.53v72.45h-30.8Zm30.8,80.09h50.52c19.47,0,30.06-9.61,30.06-28.09,0-22.42-14.54-26.86-30.55-26.86h-50Z"/><path class="cls-1" d="M611.36,212.37c0-38.94,23.41-67,64.32-67s64.32,28.09,64.32,67c0,39.18-23.41,67.27-64.32,67.27S611.36,251.55,611.36,212.37Zm100.54,0c0-21.93-11.09-44.85-36.22-44.85s-36.23,22.92-36.23,44.85c0,22.18,11.09,45.1,36.23,45.1S711.9,234.55,711.9,212.37Z"/><path class="cls-1" d="M870.11,247.85c0,6.9,1.48,9.62,6.66,9.62a38.34,38.34,0,0,0,6.9-.5v19.47a70.46,70.46,0,0,1-17.75,3.2c-11.33,0-19.46-3.94-21.68-15.52-11.09,10.84-29.08,15.52-44.11,15.52-22.92,0-43.62-12.32-43.62-37.21,0-31.79,25.38-37,49-39.67,20.21-3.7,38.2-1.48,38.2-18,0-14.54-15-17.25-26.37-17.25-15.77,0-26.86,6.41-28.1,20.21H761.19c2-32.78,29.82-42.39,57.91-42.39,24.89,0,51,10.1,51,37ZM842,212.37c-8.63,5.67-22.18,5.42-34.5,7.64-12.08,2-22.92,6.41-22.92,21.19,0,12.57,16,16.27,25.88,16.27,12.32,0,31.54-6.41,31.54-24.15Z"/><path class="cls-1" d="M1020.44,276.19H993.82V258.94h-.49c-7.39,14.54-23.41,20.7-39.43,20.7-40.17,0-59.63-29.81-59.63-68,0-46.08,27.35-66.29,55.2-66.29,16,0,33.76,5.91,42.38,20h.5V100.24h28.09ZM957.6,257.47c25.13,0,35.73-22.92,35.73-45.1,0-28.09-13.55-44.85-35.24-44.85-26.37,0-35.73,23.41-35.73,46.33C922.36,235.78,933.2,257.47,957.6,257.47Z"/><path class="cls-1" d="M1208.47,276.19h-19.72l-4.68-20.7c-16.51,18.73-31.54,24.89-53,24.89-52.74,0-84.28-41.89-84.28-92.16s31.54-92.17,84.28-92.17c38.44,0,70.72,20.46,75.41,60.13h-30.07c-3-23.16-23.16-35-45.34-35-37.71,0-53.48,33.27-53.48,67s15.77,67,53.48,67c31.54.49,48.79-18.48,49.28-48.3h-46.82V183.54h74.92Z"/><path class="cls-1" d="M1344.74,247.85c0,6.9,1.48,9.62,6.66,9.62a38.34,38.34,0,0,0,6.9-.5v19.47a70.46,70.46,0,0,1-17.74,3.2c-11.34,0-19.47-3.94-21.69-15.52-11.09,10.84-29.08,15.52-44.11,15.52-22.92,0-43.62-12.32-43.62-37.21,0-31.79,25.38-37,49-39.67,20.21-3.7,38.2-1.48,38.2-18,0-14.54-15-17.25-26.37-17.25-15.77,0-26.86,6.41-28.09,20.21h-28.1c2-32.78,29.82-42.39,57.91-42.39,24.89,0,51,10.1,51,37Zm-28.09-35.48c-8.62,5.67-22.18,5.42-34.5,7.64-12.07,2-22.92,6.41-22.92,21.19,0,12.57,16,16.27,25.88,16.27,12.32,0,31.54-6.41,31.54-24.15Z"/><path class="cls-1" d="M1486.94,276.19h-27.6V258.45h-.49c-6.9,12.82-22.18,21.19-36.23,21.19-33.27,0-47.56-16.75-47.56-50V148.79h28.09v78.12c0,22.42,9.12,30.56,24.4,30.56,23.41,0,31.3-15,31.3-34.75V148.79h28.09Z"/><path class="cls-1" d="M1634.3,269.54c0,38.2-22.42,57.17-62.59,57.17-25.63,0-54.46-9.85-56.92-39.67h28.09c3.45,16,16.26,18.73,30.56,18.73,22.67,0,32.77-11.59,32.77-32.53V253.77h-.49a43.62,43.62,0,0,1-38.2,22.42c-40.41,0-57.17-30.55-57.17-67,0-34.26,21.44-63.83,57.66-63.83,16,0,30.56,6.65,37.71,20.95h.49v-17.5h28.09Zm-28.09-59.88c0-21.93-9.86-42.14-34.25-42.14-24.89,0-33.52,23.16-33.52,44.36,0,20.94,10.11,42.14,33.52,42.14C1596.85,254,1606.21,231.34,1606.21,209.66Z"/><path class="cls-1" d="M1684.58,219.76c0,20,10.84,37.71,34.25,37.71,16.27,0,26.12-7.15,31.05-21.2h26.62c-6.17,27.85-29.82,43.37-57.67,43.37-39.92,0-62.35-27.84-62.35-67,0-36.23,23.66-67.28,61.61-67.28,40.17,0,64.81,36.23,60.13,74.42Zm65.55-18.48c-1-17.74-13.06-33.76-32-33.76-19.47,0-32.77,14.78-33.51,33.76Z"/><path class="cls-2" d="M66.6,34.07a80.1,80.1,0,0,0-38.67,68.39V293.59a80.17,80.17,0,0,0,79.93,79.93h33C254.55,225.89,89.86,56.71,66.6,34.07Z"/><path class="cls-2" d="M299,22.52h-8.58c86.37,235.34-42.91,339.1-59.19,351H299a80.18,80.18,0,0,0,79.94-79.93V102.46A80.18,80.18,0,0,0,299,22.52Z"/><path class="cls-3" d="M230.05,22.52H203.43c135,200.79-2.59,337.14-17.51,351h18.53C348.46,209.6,246.42,46.42,230.05,22.52Z"/><path class="cls-4" d="M203.43,22.52H107.86A79.3,79.3,0,0,0,66.6,34.07c23.26,22.64,188,191.82,74.24,339.45h45.08C200.84,359.66,338.39,223.31,203.43,22.52Z"/></svg>